PathFileType	4	(X/Y/Z)	S1_rest_med_left.trc
DataRate	CameraRate	NumFrames	NumMarkers	Units	OrigDataRate	OrigDataStartFrame	OrigNumFrames
250.00	250.00	14	18	mm	250.00	14134	22613
Frame#	Time	c7	r_should	l_should	clavicle	r_upa	r_elb_l	r_elb_m	r_low	r_wri_l	r_wri_m	r_met	l_upa	l_elb_l	l_elb_m	l_low	l_wri_l	l_wri_m	l_met
	X1	Y1	Z1	X2	Y2	Z2	X3	Y3	Z3	X4	Y4	Z4	X5	Y5	Z5	X6	Y6	Z6	X7	Y7	Z7	X8	Y8	Z8	X9	Y9	Z9	X10	Y10	Z10	X11	Y11	Z11	X12	Y12	Z12	X13	Y13	Z13	X14	Y14	Z14	X15	Y15	Z15	X16	Y16	Z16	X17	Y17	Z17	X18	Y18	Z18
14134	56.53200	432.25092	1418.02698	8.66272	509.65738	1355.83801	189.35695	467.29547	1358.31384	-181.20175	572.40979	1300.55640	-8.32314	488.61923	1161.36023	265.00436	503.24469	1063.62793	279.89359	428.96225	1037.00024	217.54193	489.90176	931.99567	295.94247	584.04926	867.87140	251.80826	523.65527	836.12579	274.93051	635.71655	789.93622	256.47327	478.76431	1134.31006	-214.02888	487.48053	1051.79187	-233.06186	nan	nan	nan	460.55511	902.03320	-207.45021	512.94788	818.05756	-257.16501	483.05716	788.27332	-192.61917	484.33630	747.64886	-278.37759
14135	56.53600	432.27768	1418.03174	8.62544	509.67444	1355.84595	189.32347	467.31741	1358.29480	-181.23755	572.42847	1300.53259	-8.34102	488.61285	1161.37891	264.99011	503.23117	1063.64795	279.89090	428.94592	1037.01880	217.53659	489.86285	932.01782	295.95242	584.00793	867.86346	251.82262	523.59937	836.13757	274.95172	635.66058	789.91705	256.50391	478.75092	1134.29211	-214.04991	487.43390	1051.76624	-233.06500	nan	nan	nan	460.57672	902.00830	-207.43671	512.99658	818.04407	-257.14987	483.10278	788.25916	-192.61380	484.38831	747.63446	-278.34225
14136	56.54000	432.31107	1418.04211	8.58963	509.69238	1355.85559	189.29343	467.34161	1358.27551	-181.27390	572.44647	1300.49731	-8.37418	488.61359	1161.39661	264.96957	503.22122	1063.66089	279.89453	428.92780	1037.04333	217.52795	489.82227	932.03760	295.95850	583.96423	867.85651	251.83737	523.54694	836.14618	274.97470	635.60223	789.90796	256.53589	478.72955	1134.27490	-214.07729	487.38779	1051.74353	-233.07913	nan	nan	nan	460.59842	901.98273	-207.42674	513.04913	818.03595	-257.13412	483.14673	788.24115	-192.60620	484.44547	747.61926	-278.31259
14137	56.54400	432.34836	1418.04822	8.55460	509.71390	1355.86304	189.25455	467.36554	1358.25305	-181.30998	572.45337	1300.46399	-8.40678	488.60614	1161.41516	264.96231	503.19714	1063.67859	279.88757	428.90125	1037.06665	217.51331	489.77914	932.05573	295.96375	583.91345	867.85168	251.84947	523.49200	836.15277	274.99326	635.53906	789.90051	256.57697	478.69717	1134.26453	-214.10727	487.34106	1051.71704	-233.09329	nan	nan	nan	460.62396	901.95227	-207.41489	513.10406	818.01959	-257.11990	483.19293	788.23004	-192.61366	484.50555	747.61011	-278.28345
14138	56.54800	432.38449	1418.04407	8.50625	509.73224	1355.86877	189.21564	467.38968	1358.23340	-181.34779	572.46564	1300.44849	-8.41824	488.60275	1161.42163	264.93961	503.17258	1063.69189	279.88358	428.88010	1037.08081	217.49815	489.73178	932.07648	295.97098	583.86212	867.84625	251.86842	523.43475	836.16180	275.00992	635.47455	789.88782	256.61685	478.66321	1134.24536	-214.14067	487.29099	1051.69275	-233.10846	nan	nan	nan	460.64954	901.91766	-207.41237	513.15759	818.00861	-257.10593	483.24149	788.21643	-192.61905	484.56781	747.59601	-278.26648
14139	56.55200	432.41992	1418.05151	8.45789	509.75031	1355.87598	189.18179	467.41422	1358.21436	-181.38313	572.47797	1300.42468	-8.44254	488.58868	1161.43115	264.90836	503.14905	1063.70667	279.87332	428.86151	1037.09705	217.47997	489.67682	932.09375	295.97531	583.81494	867.84283	251.88730	523.36896	836.17218	275.02667	635.40924	789.87708	256.65512	478.62320	1134.23132	-214.17004	487.23590	1051.66626	-233.12830	nan	nan	nan	460.67679	901.88452	-207.41219	513.21448	817.99957	-257.09033	483.29428	788.19586	-192.61124	484.62570	747.59161	-278.25146
14140	56.55600	432.45596	1418.05798	8.41462	509.76694	1355.88318	189.14763	467.44308	1358.19788	-181.42189	572.49139	1300.40430	-8.47854	488.57492	1161.44971	264.88763	503.12430	1063.71594	279.85916	428.83664	1037.11780	217.46782	489.62375	932.11023	295.97461	583.77136	867.83698	251.90157	523.30603	836.18079	275.04291	635.34918	789.86981	256.70166	478.58597	1134.21680	-214.20044	487.18289	1051.63501	-233.14708	nan	nan	nan	460.70044	901.85474	-207.41635	513.27405	817.98810	-257.08005	483.35257	788.18542	-192.61520	484.68787	747.59351	-278.23602
14141	56.56000	432.49042	1418.06836	8.36229	509.78677	1355.88879	189.11449	467.47400	1358.18201	-181.46558	572.50641	1300.38171	-8.51488	488.56033	1161.45776	264.86264	503.09698	1063.72302	279.84848	428.81375	1037.13513	217.44267	489.56818	932.12561	295.96912	583.72308	867.83032	251.91930	523.24146	836.18817	275.05307	635.28589	789.86597	256.74310	478.54916	1134.19763	-214.23381	487.12683	1051.61060	-233.17311	nan	nan	nan	460.72275	901.82471	-207.41919	513.33362	817.97772	-257.07571	483.41559	788.17407	-192.61914	484.75235	747.58832	-278.22324
14142	56.56400	432.52243	1418.07312	8.31258	509.81079	1355.90259	189.07620	467.50204	1358.15991	-181.50211	572.51849	1300.35803	-8.54362	488.54474	1161.47168	264.84131	503.07434	1063.73816	279.83710	428.79193	1037.15454	217.41562	489.51175	932.14355	295.96735	583.67670	867.82324	251.93655	523.17523	836.19611	275.06586	635.22089	789.86267	256.78784	478.51022	1134.17798	-214.25806	487.07687	1051.58533	-233.19456	nan	nan	nan	460.74902	901.79041	-207.42374	513.40021	817.96710	-257.06677	483.48135	788.15411	-192.61957	484.81909	747.58234	-278.20279
14143	56.56800	432.55380	1418.07837	8.26982	509.82965	1355.91504	189.04196	467.52649	1358.14148	-181.53665	572.52704	1300.34155	-8.57926	488.53140	1161.48279	264.82175	503.04608	1063.75732	279.82544	428.77271	1037.17126	217.40123	489.45712	932.16211	295.96881	583.62805	867.81488	251.95789	523.11121	836.20605	275.08215	635.15143	789.84973	256.83914	478.47485	1134.16248	-214.29305	487.02490	1051.56421	-233.21106	nan	nan	nan	460.78015	901.75934	-207.42253	513.47717	817.95935	-257.05023	483.55255	788.13995	-192.61581	484.88641	747.58551	-278.18167
14144	56.57200	432.58496	1418.08630	8.22217	509.84610	1355.92236	189.01323	467.54810	1358.12695	-181.57047	572.53601	1300.32861	-8.61436	488.52847	1161.49084	264.80066	503.01105	1063.77197	279.82156	428.75198	1037.19055	217.37639	489.39828	932.18018	295.97009	583.57812	867.80884	251.98280	523.04492	836.21875	275.10181	635.07770	789.84680	256.89566	478.44522	1134.14136	-214.32039	486.96368	1051.54407	-233.21996	nan	nan	nan	460.81659	901.72968	-207.41963	513.56396	817.95520	-257.02625	483.63632	788.13635	-192.60738	484.95779	747.59521	-278.15329
14145	56.57600	432.61386	1418.09680	8.16586	509.86832	1355.93530	188.98567	467.56650	1358.11658	-181.60403	572.54877	1300.30383	-8.63791	488.52240	1161.50977	264.77664	502.98190	1063.79065	279.81567	428.72531	1037.21631	217.36494	489.34537	932.20251	295.97318	583.53101	867.81097	252.00671	522.98163	836.23413	275.12515	635.00836	789.84045	256.94601	478.40930	1134.12354	-214.34578	486.89771	1051.53101	-233.23094	nan	nan	nan	460.85959	901.70062	-207.41595	513.66223	817.95691	-257.00189	483.72623	788.12939	-192.60948	485.04147	747.61426	-278.12601
14146	56.58000	432.64014	1418.10132	8.12432	509.88818	1355.95081	188.95673	467.59283	1358.10242	-181.63841	572.56604	1300.27905	-8.64125	488.50684	1161.52893	264.75171	502.95032	1063.81299	279.80698	428.69662	1037.24780	217.35431	489.29727	932.22534	295.98105	583.48083	867.80963	252.02727	522.91803	836.24841	275.14621	634.94562	789.82568	256.98920	478.36948	1134.10950	-214.37869	486.83517	1051.51941	-233.23637	nan	nan	nan	460.91141	901.66803	-207.40718	513.76666	817.95892	-256.97992	483.81958	788.12646	-192.60768	485.13300	747.65381	-278.10120
14147	56.58400	432.66763	1418.10339	8.08095	509.90402	1355.96094	188.92590	467.61578	1358.08704	-181.66823	572.57770	1300.26038	-8.66385	488.49100	1161.54785	264.73328	502.90881	1063.83289	279.79822	428.67053	1037.27307	217.32997	489.24762	932.24786	295.98154	583.42981	867.81207	252.04909	522.85547	836.26141	275.16837	634.88202	789.81506	257.03781	478.32996	1134.09473	-214.40907	486.77524	1051.50098	-233.23766	nan	nan	nan	460.96686	901.63507	-207.40305	513.87347	817.96075	-256.95828	483.92734	788.12054	-192.60054	485.23288	747.68115	-278.07816
